<?xml version="1.0" standalone="no"?><!DOCTYPE svg PUBLIC "-//W3C//DTD SVG 1.1//EN" "http://www.w3.org/Graphics/SVG/1.1/DTD/svg11.dtd"><svg t="1575261650340" class="icon" viewBox="0 0 1024 1024" version="1.1" xmlns="http://www.w3.org/2000/svg" p-id="5319" xmlns:xlink="http://www.w3.org/1999/xlink" width="200" height="200"><defs><style type="text/css"></style></defs><path d="M897.28 455.68H844.8c-5.12-69.12-33.28-131.84-75.52-181.76l37.12-37.12c10.24-10.24 11.52-24.32 3.84-32l-7.68-7.68c-7.68-7.68-23.04-6.4-32 3.84l-37.12 37.12c-49.92-42.24-112.64-70.4-181.76-75.52V110.08c0-14.08-8.96-25.6-20.48-25.6h-10.24c-11.52 0-20.48 11.52-20.48 25.6v52.48c-69.12 5.12-131.84 33.28-181.76 75.52L281.6 200.96c-10.24-10.24-24.32-11.52-32-3.84l-7.68 7.68c-7.68 7.68-6.4 23.04 3.84 32l37.12 37.12c-42.24 49.92-70.4 112.64-75.52 181.76h-52.48c-14.08 0-25.6 8.96-25.6 20.48v10.24c0 11.52 11.52 20.48 25.6 20.48h52.48C212.48 576 239.36 640 281.6 689.92l-37.12 37.12c-10.24 10.24-11.52 24.32-3.84 32l7.68 7.68c7.68 7.68 23.04 6.4 32-3.84l37.12-37.12c49.92 42.24 112.64 70.4 181.76 75.52v52.48c0 14.08 8.96 25.6 20.48 25.6h10.24c11.52 0 20.48-11.52 20.48-25.6v-52.48c69.12-5.12 131.84-33.28 181.76-75.52l37.12 37.12c10.24 10.24 24.32 11.52 32 3.84l7.68-7.68c7.68-7.68 6.4-23.04-3.84-32L768 689.92c43.52-49.92 70.4-113.92 76.8-183.04h52.48c14.08 0 25.6-8.96 25.6-20.48v-10.24c0-10.24-11.52-20.48-25.6-20.48z m-129.28 0H611.84c-1.28-6.4-3.84-11.52-6.4-16.64l110.08-110.08c28.16 35.84 47.36 79.36 52.48 126.72z m-89.6-162.56l-110.08 110.08c-5.12-2.56-11.52-5.12-16.64-6.4V240.64c47.36 3.84 90.88 23.04 126.72 52.48z m-177.92-52.48V396.8c-6.4 1.28-11.52 3.84-16.64 6.4l-110.08-110.08c34.56-29.44 78.08-48.64 126.72-52.48z m-163.84 88.32l110.08 110.08c-2.56 5.12-5.12 11.52-6.4 16.64H284.16c5.12-47.36 23.04-90.88 52.48-126.72z m-52.48 177.92h156.16c1.28 6.4 3.84 11.52 6.4 16.64l-110.08 110.08c-29.44-34.56-47.36-78.08-52.48-126.72z m88.32 163.84l110.08-110.08c5.12 2.56 11.52 5.12 16.64 6.4v156.16c-47.36-5.12-90.88-23.04-126.72-52.48z m179.2 52.48V568.32c6.4-1.28 11.52-3.84 16.64-6.4l110.08 110.08c-35.84 28.16-79.36 46.08-126.72 51.2z m162.56-88.32L604.16 524.8c2.56-5.12 5.12-11.52 6.4-16.64H768c-5.12 47.36-24.32 90.88-53.76 126.72z" fill="#FAC546" p-id="5320"></path><path d="M531.2 890.88h-10.24c-17.92 0-33.28-16.64-33.28-38.4v-40.96C426.24 803.84 368.64 780.8 320 742.4l-28.16 28.16c-7.68 7.68-17.92 12.8-28.16 12.8-8.96 0-16.64-2.56-21.76-8.96l-10.24-6.4c-5.12-5.12-8.96-14.08-8.96-21.76 0-10.24 5.12-20.48 12.8-28.16l28.16-28.16c-38.4-48.64-62.72-106.24-69.12-167.68H153.6c-21.76 0-38.4-15.36-38.4-33.28v-10.24c0-17.92 16.64-33.28 38.4-33.28h40.96c7.68-61.44 30.72-119.04 69.12-167.68l-28.16-28.16c-7.68-7.68-12.8-17.92-12.8-28.16 0-8.96 2.56-16.64 8.96-21.76l7.68-7.68c5.12-5.12 14.08-8.96 21.76-8.96 10.24 0 20.48 5.12 28.16 12.8l28.16 28.16c48.64-38.4 106.24-62.72 167.68-69.12V110.08c0-21.76 15.36-38.4 33.28-38.4h10.24c17.92 0 33.28 16.64 33.28 38.4v40.96c61.44 7.68 119.04 30.72 167.68 69.12l28.16-28.16c6.4-6.4 15.36-11.52 24.32-12.8 10.24-1.28 19.2 2.56 25.6 8.96l7.68 7.68c6.4 6.4 10.24 16.64 8.96 25.6-1.28 8.96-5.12 17.92-12.8 24.32l-28.16 28.16c38.4 48.64 62.72 106.24 69.12 167.68h40.96c21.76 0 38.4 15.36 38.4 33.28v11.52c0 17.92-16.64 33.28-38.4 33.28h-40.96c-7.68 61.44-30.72 119.04-69.12 167.68l28.16 28.16c7.68 7.68 12.8 17.92 12.8 28.16 0 8.96-2.56 16.64-8.96 21.76l-7.68 7.68c-6.4 6.4-16.64 10.24-25.6 8.96-8.96-1.28-17.92-5.12-24.32-12.8l-25.6-26.88c-48.64 38.4-106.24 62.72-167.68 69.12v40.96c0 21.76-15.36 38.4-33.28 38.4zM318.72 712.96c2.56 0 6.4 1.28 7.68 2.56 49.92 42.24 110.08 66.56 174.08 71.68 6.4 0 11.52 6.4 11.52 12.8v52.48c0 7.68 3.84 12.8 7.68 12.8h10.24c3.84 0 7.68-5.12 7.68-12.8v-52.48c0-6.4 5.12-12.8 11.52-12.8 65.28-5.12 125.44-30.72 174.08-71.68 5.12-3.84 12.8-3.84 17.92 1.28l37.12 37.12c2.56 2.56 6.4 5.12 8.96 5.12 1.28 0 3.84 0 5.12-1.28l7.68-7.68c1.28-1.28 1.28-2.56 1.28-3.84 0-3.84-1.28-7.68-5.12-10.24l-37.12-37.12c-5.12-5.12-5.12-12.8-1.28-17.92 42.24-49.92 66.56-110.08 71.68-174.08 0-6.4 6.4-11.52 12.8-11.52h52.48c7.68 0 12.8-3.84 12.8-7.68v-10.24c0-3.84-5.12-7.68-12.8-7.68H844.8c-6.4 0-12.8-5.12-12.8-11.52-5.12-65.28-30.72-125.44-71.68-174.08-3.84-5.12-3.84-12.8 1.28-17.92l37.12-37.12c2.56-2.56 5.12-6.4 5.12-8.96 0-1.28 0-3.84-1.28-5.12l-8.96-7.68c-1.28-1.28-3.84-1.28-5.12-1.28-3.84 0-6.4 2.56-8.96 5.12L742.4 247.04c-5.12 5.12-12.8 5.12-17.92 1.28-49.92-42.24-110.08-66.56-174.08-71.68-6.4 0-11.52-6.4-11.52-12.8V110.08c0-7.68-3.84-12.8-7.68-12.8h-10.24c-3.84 0-7.68 5.12-7.68 12.8v52.48c0 6.4-5.12 12.8-11.52 12.8-65.28 5.12-125.44 30.72-174.08 71.68-5.12 3.84-12.8 3.84-17.92-1.28l-37.12-37.12c-3.84-1.28-7.68-3.84-11.52-3.84-1.28 0-2.56 0-3.84 1.28l-7.68 7.68c-1.28 1.28-1.28 2.56-1.28 3.84 0 3.84 1.28 7.68 5.12 10.24l37.12 37.12c5.12 5.12 5.12 12.8 1.28 17.92-42.24 49.92-66.56 110.08-71.68 174.08 0 6.4-6.4 11.52-12.8 11.52h-52.48c-7.68 0-12.8 3.84-12.8 7.68v10.24c0 3.84 5.12 7.68 12.8 7.68h52.48c6.4 0 12.8 5.12 12.8 11.52 5.12 65.28 30.72 125.44 71.68 174.08 3.84 5.12 3.84 12.8-1.28 17.92l-37.12 37.12c-2.56 2.56-5.12 6.4-5.12 10.24 0 1.28 0 2.56 1.28 3.84l7.68 7.68c1.28 1.28 2.56 1.28 3.84 1.28 3.84 0 7.68-1.28 10.24-5.12l37.12-37.12c2.56-1.28 6.4-2.56 10.24-2.56z m232.96 23.04c-2.56 0-6.4-1.28-8.96-3.84-2.56-2.56-3.84-6.4-3.84-8.96V568.32c0-5.12 3.84-10.24 8.96-12.8 5.12-1.28 10.24-3.84 14.08-6.4 5.12-2.56 11.52-1.28 15.36 2.56l110.08 110.08c2.56 2.56 3.84 6.4 3.84 10.24 0 3.84-1.28 6.4-5.12 8.96-38.4 30.72-84.48 49.92-134.4 55.04z m12.8-158.72v131.84c34.56-5.12 66.56-19.2 94.72-39.68L565.76 576c-1.28 0-1.28 0-1.28 1.28z m-64 158.72H499.2c-48.64-5.12-96-24.32-134.4-55.04-2.56-2.56-5.12-5.12-5.12-8.96 0-3.84 1.28-7.68 3.84-10.24l110.08-110.08c3.84-3.84 10.24-5.12 15.36-2.56 5.12 2.56 8.96 3.84 14.08 6.4 5.12 1.28 8.96 6.4 8.96 12.8v156.16c0 3.84-1.28 7.68-3.84 8.96-2.56 2.56-5.12 2.56-7.68 2.56z m-108.8-66.56c28.16 20.48 60.16 33.28 94.72 39.68V577.28h-1.28l-93.44 92.16z m322.56-21.76c-3.84 0-6.4-1.28-8.96-3.84l-110.08-110.08c-3.84-3.84-5.12-10.24-2.56-15.36 2.56-5.12 3.84-8.96 6.4-14.08 1.28-5.12 6.4-8.96 12.8-8.96H768c3.84 0 7.68 1.28 8.96 3.84 2.56 2.56 3.84 6.4 3.84 10.24-5.12 48.64-24.32 96-55.04 134.4-3.84 1.28-6.4 3.84-11.52 3.84 1.28 0 0 0 0 0z m-94.72-125.44l93.44 93.44c20.48-28.16 33.28-61.44 39.68-94.72H620.8s-1.28 0-1.28 1.28z m-282.88 125.44c-3.84 0-7.68-2.56-10.24-5.12-30.72-38.4-49.92-84.48-55.04-134.4 0-3.84 1.28-7.68 3.84-10.24 2.56-2.56 6.4-3.84 8.96-3.84h156.16c5.12 0 10.24 3.84 12.8 8.96 1.28 5.12 3.84 10.24 6.4 14.08 2.56 5.12 1.28 11.52-2.56 15.36L345.6 643.84c-2.56 2.56-5.12 3.84-8.96 3.84z m-38.4-128c5.12 34.56 19.2 66.56 39.68 94.72l93.44-93.44s0-1.28-1.28-1.28H298.24z m469.76-51.2H611.84c-5.12 0-10.24-3.84-12.8-8.96-1.28-5.12-3.84-10.24-6.4-14.08-2.56-5.12-1.28-11.52 2.56-15.36l110.08-110.08c2.56-2.56 6.4-3.84 10.24-3.84 3.84 0 6.4 1.28 8.96 5.12 30.72 38.4 49.92 84.48 55.04 134.4 0 3.84-1.28 7.68-3.84 10.24-1.28 1.28-5.12 2.56-7.68 2.56z m-147.2-25.6h131.84c-5.12-34.56-19.2-66.56-39.68-94.72l-93.44 93.44c0 1.28 1.28 1.28 1.28 1.28z m-180.48 25.6H284.16c-3.84 0-7.68-1.28-8.96-3.84-2.56-2.56-3.84-6.4-3.84-10.24 5.12-48.64 24.32-96 55.04-134.4 2.56-2.56 5.12-5.12 8.96-5.12 3.84 0 7.68 1.28 10.24 3.84l110.08 110.08c3.84 3.84 5.12 10.24 2.56 15.36-2.56 5.12-3.84 8.96-6.4 14.08-1.28 7.68-6.4 10.24-11.52 10.24z m-142.08-25.6h131.84s0-1.28 1.28-1.28l-93.44-93.44c-20.48 28.16-33.28 61.44-39.68 94.72z m184.32-26.88c-3.84 0-6.4-1.28-8.96-3.84l-110.08-110.08c-2.56-2.56-3.84-6.4-3.84-10.24 0-3.84 1.28-6.4 5.12-8.96 38.4-30.72 84.48-49.92 134.4-55.04 3.84 0 7.68 1.28 10.24 3.84 2.56 2.56 3.84 6.4 3.84 8.96V396.8c0 5.12-3.84 10.24-8.96 12.8-5.12 1.28-10.24 3.84-14.08 6.4-2.56-1.28-5.12 0-7.68 0zM391.68 294.4l93.44 93.44s1.28 0 1.28-1.28V254.72c-33.28 5.12-65.28 19.2-94.72 39.68z m176.64 121.6c-2.56 0-3.84 0-6.4-1.28-3.84-2.56-8.96-3.84-14.08-6.4-5.12-1.28-8.96-6.4-8.96-12.8V240.64c0-3.84 1.28-7.68 3.84-8.96 2.56-2.56 6.4-3.84 10.24-3.84 48.64 5.12 96 24.32 134.4 55.04 2.56 2.56 5.12 5.12 5.12 8.96 0 3.84-1.28 7.68-3.84 10.24l-110.08 110.08c-3.84 2.56-7.68 3.84-10.24 3.84z m-3.84-29.44s1.28 0 1.28 1.28l93.44-93.44c-28.16-20.48-61.44-33.28-94.72-39.68v131.84z" fill="#231C1C" p-id="5321"></path></svg>